<svg width="21" height="25" viewBox="0 0 21 25" fill="none" xmlns="http://www.w3.org/2000/svg">
<path fill-rule="evenodd" clip-rule="evenodd" d="M6.68183 0C6.1545 0 5.72719 0.427301 5.72719 0.954639C5.72719 1.48171 6.15449 1.90902 6.68183 1.90902H15.273C17.3815 1.90902 19.091 3.61848 19.091 5.72725V18.1361C19.091 18.6634 19.5183 19.0907 20.0456 19.0907C20.5727 19.0907 21 18.6634 21 18.1361V5.72725C21 2.56407 18.4359 0 15.273 0H6.68183ZM3.81823 4.77261H14.3179C15.3723 4.77261 16.2269 5.62748 16.2269 6.68164V20.9996C16.2269 22.054 15.3723 22.9086 14.3179 22.9086H3.81823C2.76382 22.9086 1.90921 22.054 1.90921 20.9996V6.68164C1.90921 5.62748 2.76382 4.77261 3.81823 4.77261V4.77261ZM0 6.68164C0 4.57312 1.70946 2.86366 3.81823 2.86366H14.3179C16.4264 2.86366 18.1361 4.57312 18.1361 6.68164V20.9996C18.1361 23.1084 16.4264 24.8178 14.3179 24.8178H3.81823C1.70946 24.8178 0 23.1084 0 20.9996V6.68164Z" fill="#fff"/>
</svg>
